<?xml version="1.0" standalone="no" ?>
<!DOCTYPE svg PUBLIC "-//W3C//DTD SVG 1.1//EN" "http://www.w3.org/Graphics/SVG/1.1/DTD/svg11.dtd">
<svg width="438px" height="353px" viewBox="0 0 438 353" style="background-color: #ffffff00" xmlns="http://www.w3.org/2000/svg" xmlns:xlink="http://www.w3.org/1999/xlink" version="1.1" >
<path stroke="none" fill="#000000" transform="matrix(0.05 0 0 0.05 -628 -344)" d="M 18899,11098.2 L 18904.2,11082.2 L 18922,11080.4 L 19153.8,11339.3 L 19150,11356.7 L 19133.5,11360.2 L 18899,11098.2 Z " />
<path stroke="none" fill="#000000" transform="matrix(0.05 0 0 0.05 -628 -344)" d="M 19162,11367.6 L 19150,11356.7 L 19153.8,11339.3 L 19471.6,11198.5 L 19487.1,11207.4 L 19487.1,11223.6 L 19162,11367.6 Z " />
<path stroke="none" fill="#000000" transform="matrix(0.05 0 0 0.05 -628 -344)" d="M 19500.7,11197.5 L 19487.1,11207.4 L 19471.6,11198.5 L 19435.4,10852.3 L 19448.7,10840.4 L 19464,10845.4 L 19500.7,11197.5 Z " />
<path stroke="none" fill="#000000" transform="matrix(0.05 0 0 0.05 -628 -344)" d="M 19443.5,10824.3 L 19448.7,10840.4 L 19435.4,10852.3 L 19096.2,10779 L 19088.9,10762.7 L 19100.3,10750.2 L 19443.5,10824.3 Z " />
<path stroke="none" fill="#000000" transform="matrix(0.05 0 0 0.05 -628 -344)" d="M 18922,11080.4 L 18904.2,11082.2 L 18894.8,11069.1 L 19072.9,10760.9 L 19088.9,10762.7 L 19096.2,10779 L 18922,11080.4 Z " />
<path stroke="none" fill="#000000" transform="matrix(0.05 0 0 0.05 -628 -344)" d="M 18894.8,11069.1 L 18904.2,11082.2 L 18899,11098.2 L 18555.2,11170 L 18543.9,11157.4 L 18552.2,11141.1 L 18894.8,11069.1 Z " />
<path stroke="none" fill="#000000" transform="matrix(0.05 0 0 0.05 -628 -344)" d="M 18873.5,11151.2 L 18879.8,11181.1 L 18606,11238.3 L 18599.8,11208.3 L 18873.5,11151.2 Z " />
<path stroke="none" fill="#000000" transform="matrix(0.05 0 0 0.05 -628 -344)" d="M 18528,11158.6 L 18543.9,11157.4 L 18555.2,11170 L 18445.9,11503.9 L 18411.2,11511.1 L 18528,11158.6 Z " />
<path stroke="none" fill="#000000" transform="matrix(0.05 0 0 0.05 -628 -344)" d="M 18411.2,11511.1 L 18445.9,11503.9 L 18680.4,11765.8 L 18669.4,11799.5 L 18411.2,11511.1 Z " />
<path stroke="none" fill="#000000" transform="matrix(0.05 0 0 0.05 -628 -344)" d="M 18504.4,11499.4 L 18527.2,11479 L 18714,11687.6 L 18691.2,11708 L 18504.4,11499.4 Z " />
<path stroke="none" fill="#000000" transform="matrix(0.05 0 0 0.05 -628 -344)" d="M 18669.4,11799.5 L 18680.4,11765.8 L 19023.4,11693 L 19034.7,11705.6 L 19031.7,11721.3 L 18669.4,11799.5 Z " />
<path stroke="none" fill="#000000" transform="matrix(0.05 0 0 0.05 -628 -344)" d="M 19133.5,11360.2 L 19150,11356.7 L 19162,11367.6 L 19051.9,11699.2 L 19034.7,11705.6 L 19023.4,11693 L 19133.5,11360.2 Z " />
<path stroke="none" fill="#000000" transform="matrix(0.05 0 0 0.05 -628 -344)" d="M 19197.5,11408.2 L 19226.6,11417.8 L 19140.7,11677.4 L 19111.7,11667.8 L 19197.5,11408.2 Z " />
<path stroke="none" fill="#000000" transform="matrix(0.05 0 0 0.05 -628 -344)" d="M 19464,10845.4 L 19448.7,10840.4 L 19443.5,10824.3 L 19679.8,10564.8 L 19696.3,10568.4 L 19699.3,10586.4 L 19464,10845.4 Z " />
<path stroke="none" fill="#000000" transform="matrix(0.05 0 0 0.05 -628 -344)" d="M 19433.1,10766.6 L 19410.4,10746 L 19598.7,10539.2 L 19621.3,10559.8 L 19433.1,10766.6 Z " />
<path stroke="none" fill="#000000" transform="matrix(0.05 0 0 0.05 -628 -344)" d="M 19708.5,10558 L 19696.3,10568.4 L 19679.8,10564.8 L 19573.4,10229.8 L 19597.3,10203.6 L 19708.5,10558 Z " />
<path stroke="none" fill="#000000" transform="matrix(0.05 0 0 0.05 -628 -344)" d="M 19597.3,10203.6 L 19573.4,10229.8 L 19229.8,10155.2 L 19219,10121.5 L 19597.3,10203.6 Z " />
<path stroke="none" fill="#000000" transform="matrix(0.05 0 0 0.05 -628 -344)" d="M 19528.5,10267.8 L 19522,10297.7 L 19248.3,10238.3 L 19254.8,10208.4 L 19528.5,10267.8 Z " />
<path stroke="none" fill="#000000" transform="matrix(0.05 0 0 0.05 -628 -344)" d="M 19219,10121.5 L 19229.8,10155.2 L 18993.1,10415.2 L 18976.6,10411.6 L 18969.7,10397.2 L 19219,10121.5 Z " />
<path stroke="none" fill="#000000" transform="matrix(0.05 0 0 0.05 -628 -344)" d="M 19100.3,10750.2 L 19088.9,10762.7 L 19072.9,10760.9 L 18966.4,10426.9 L 18976.6,10411.6 L 18993.1,10415.2 L 19100.3,10750.2 Z " />
<path stroke="none" fill="#000000" transform="matrix(0.05 0 0 0.05 -628 -344)" d="M 19020.3,10749 L 18991.1,10758.4 L 18907.5,10496.9 L 18936.6,10487.6 L 19020.3,10749 Z " />
<path stroke="none" fill="#000000" transform="matrix(0.05 0 0 0.05 -628 -344)" d="M 19487.1,11223.6 L 19487.1,11207.4 L 19500.7,11197.5 L 19821.9,11340.2 L 19823.7,11357 L 19807.4,11365.4 L 19487.1,11223.6 Z " />
<path stroke="none" fill="#000000" transform="matrix(0.05 0 0 0.05 -628 -344)" d="M 19552.4,11169.4 L 19564.8,11141.4 L 19820.6,11255.1 L 19808.2,11283.1 L 19552.4,11169.4 Z " />
<path stroke="none" fill="#000000" transform="matrix(0.05 0 0 0.05 -628 -344)" d="M 19837.3,11365.3 L 19823.7,11357 L 19821.9,11340.2 L 20106.4,11133.4 L 20138.7,11147.9 L 19837.3,11365.3 Z " />
<path stroke="none" fill="#000000" transform="matrix(0.05 0 0 0.05 -628 -344)" d="M 20138.7,11147.9 L 20106.4,11133.4 L 20069.6,10782.8 L 20098.4,10763.3 L 20138.7,11147.9 Z " />
<path stroke="none" fill="#000000" transform="matrix(0.05 0 0 0.05 -628 -344)" d="M 20056.3,11102.8 L 20025.8,11105.9 L 19996.3,10823.5 L 20026.7,10820.3 L 20056.3,11102.8 Z " />
<path stroke="none" fill="#000000" transform="matrix(0.05 0 0 0.05 -628 -344)" d="M 19699.3,10586.4 L 19696.3,10568.4 L 19708.5,10558 L 20098.4,10763.3 L 20069.6,10782.8 L 19699.3,10586.4 Z " />
<path stroke="none" fill="#000000" transform="matrix(0.05 0 0 0.05 -628 -344)" d="M 19031.7,11721.3 L 19034.7,11705.6 L 19051.9,11699.2 L 19409.7,11923.1 L 19407.2,11957.8 L 19031.7,11721.3 Z " />
<path stroke="none" fill="#000000" transform="matrix(0.05 0 0 0.05 -628 -344)" d="M 19407.2,11957.8 L 19409.7,11923.1 L 19733,11779.6 L 19760.4,11801 L 19407.2,11957.8 Z " />
<path stroke="none" fill="#000000" transform="matrix(0.05 0 0 0.05 -628 -344)" d="M 19420.7,11867.2 L 19408.3,11839.3 L 19671.8,11722.3 L 19684.3,11750.3 L 19420.7,11867.2 Z " />
<path stroke="none" fill="#000000" transform="matrix(0.05 0 0 0.05 -628 -344)" d="M 19807.4,11365.4 L 19823.7,11357 L 19837.3,11365.3 L 19760.4,11801 L 19733,11779.6 L 19807.4,11365.4 Z " />
<path stroke="none" fill="#000000" transform="matrix(0.05 0 0 0.05 -628 -344)" d="M 18969.7,10397.2 L 18976.6,10411.6 L 18966.4,10426.9 L 18546,10457.2 L 18527.6,10427.8 L 18969.7,10397.2 Z " />
<path stroke="none" fill="#000000" transform="matrix(0.05 0 0 0.05 -628 -344)" d="M 18527.6,10427.8 L 18546,10457.2 L 18370.2,10763 L 18335.6,10761.7 L 18527.6,10427.8 Z " />
<path stroke="none" fill="#000000" transform="matrix(0.05 0 0 0.05 -628 -344)" d="M 18570.1,10508.9 L 18596.6,10524.1 L 18453.3,10773.3 L 18426.8,10758 L 18570.1,10508.9 Z " />
<path stroke="none" fill="#000000" transform="matrix(0.05 0 0 0.05 -628 -344)" d="M 18552.2,11141.1 L 18543.9,11157.4 L 18528,11158.6 L 18335.6,10761.7 L 18370.2,10763 L 18552.2,11141.1 Z " />
<path stroke="none" fill="#000000" transform="matrix(0.05 0 0 0.05 -628 -344)" d="M 16997.6,12434.1 L 17010.4,12423.1 L 17026.5,12430.6 L 17092.7,12771.7 L 17080.5,12784.8 L 17064.5,12779.3 L 16997.6,12434.1 Z " />
<path stroke="none" fill="#000000" transform="matrix(0.05 0 0 0.05 -628 -344)" d="M 17085.2,12800.2 L 17080.5,12784.8 L 17092.7,12771.7 L 17437.8,12813.9 L 17446.4,12829.5 L 17438.1,12843.4 L 17085.2,12800.2 Z " />
<path stroke="none" fill="#000000" transform="matrix(0.05 0 0 0.05 -628 -344)" d="M 17463.2,12828 L 17446.4,12829.5 L 17437.8,12813.9 L 17584.2,12498.2 L 17601.7,12494.8 L 17612.3,12507 L 17463.2,12828 Z " />
<path stroke="none" fill="#000000" transform="matrix(0.05 0 0 0.05 -628 -344)" d="M 17605.6,12478.4 L 17601.7,12494.8 L 17584.2,12498.2 L 17330.6,12261.3 L 17332.8,12243.5 L 17348.9,12238.6 L 17605.6,12478.4 Z " />
<path stroke="none" fill="#000000" transform="matrix(0.05 0 0 0.05 -628 -344)" d="M 17026.5,12430.6 L 17010.4,12423.1 L 17008.9,12407 L 17319.9,12233.8 L 17332.8,12243.5 L 17330.6,12261.3 L 17026.5,12430.6 Z " />
<path stroke="none" fill="#000000" transform="matrix(0.05 0 0 0.05 -628 -344)" d="M 17008.9,12407 L 17010.4,12423.1 L 16997.6,12434.1 L 16665.7,12319.4 L 16662.5,12302.8 L 16678,12293 L 17008.9,12407 Z " />
<path stroke="none" fill="#000000" transform="matrix(0.05 0 0 0.05 -628 -344)" d="M 16948.6,12466.5 L 16938.6,12495.4 L 16674.3,12404.1 L 16684.3,12375.2 L 16948.6,12466.5 Z " />
<path stroke="none" fill="#000000" transform="matrix(0.05 0 0 0.05 -628 -344)" d="M 16648.2,12295.7 L 16662.5,12302.8 L 16665.7,12319.4 L 16400.6,12549.9 L 16367.1,12538.3 L 16648.2,12295.7 Z " />
<path stroke="none" fill="#000000" transform="matrix(0.05 0 0 0.05 -628 -344)" d="M 16367.1,12538.3 L 16400.6,12549.9 L 16467.5,12895.1 L 16440.8,12918.3 L 16367.1,12538.3 Z " />
<path stroke="none" fill="#000000" transform="matrix(0.05 0 0 0.05 -628 -344)" d="M 16453.2,12576.1 L 16483.2,12570.3 L 16536.5,12845.1 L 16506.5,12851 L 16453.2,12576.1 Z " />
<path stroke="none" fill="#000000" transform="matrix(0.05 0 0 0.05 -628 -344)" d="M 16440.8,12918.3 L 16467.5,12895.1 L 16799.3,13008.6 L 16802.5,13025.1 L 16791.9,13037.1 L 16440.8,12918.3 Z " />
<path stroke="none" fill="#000000" transform="matrix(0.05 0 0 0.05 -628 -344)" d="M 17064.5,12779.3 L 17080.5,12784.8 L 17085.2,12800.2 L 16820.6,13028.5 L 16802.5,13025.1 L 16799.3,13008.6 L 17064.5,12779.3 Z " />
<path stroke="none" fill="#000000" transform="matrix(0.05 0 0 0.05 -628 -344)" d="M 17094.9,12853.3 L 17114.9,12876.5 L 16908,13055.3 L 16888,13032.2 L 17094.9,12853.3 Z " />
<path stroke="none" fill="#000000" transform="matrix(0.05 0 0 0.05 -628 -344)" d="M 17612.3,12507 L 17601.7,12494.8 L 17605.6,12478.4 L 17941.6,12376.8 L 17953.9,12388.3 L 17947.2,12405.4 L 17612.3,12507 Z " />
<path stroke="none" fill="#000000" transform="matrix(0.05 0 0 0.05 -628 -344)" d="M 17626.2,12423.4 L 17617.3,12394.1 L 17885,12313.2 L 17893.9,12342.5 L 17626.2,12423.4 Z " />
<path stroke="none" fill="#000000" transform="matrix(0.05 0 0 0.05 -628 -344)" d="M 17969.7,12385.7 L 17953.9,12388.3 L 17941.6,12376.8 L 18022.1,12034.7 L 18056,12024.4 L 17969.7,12385.7 Z " />
<path stroke="none" fill="#000000" transform="matrix(0.05 0 0 0.05 -628 -344)" d="M 18056,12024.4 L 18022.1,12034.7 L 17765.3,11794.4 L 17773.4,11759.9 L 18056,12024.4 Z " />
<path stroke="none" fill="#000000" transform="matrix(0.05 0 0 0.05 -628 -344)" d="M 17964,12044.2 L 17943.1,12066.6 L 17738.6,11875.2 L 17759.5,11852.8 L 17964,12044.2 Z " />
<path stroke="none" fill="#000000" transform="matrix(0.05 0 0 0.05 -628 -344)" d="M 17773.4,11759.9 L 17765.3,11794.4 L 17428.8,11896.1 L 17416.5,11884.6 L 17418,11868.6 L 17773.4,11759.9 Z " />
<path stroke="none" fill="#000000" transform="matrix(0.05 0 0 0.05 -628 -344)" d="M 17348.9,12238.6 L 17332.8,12243.5 L 17319.9,12233.8 L 17399.9,11892.5 L 17416.5,11884.6 L 17428.8,11896.1 L 17348.9,12238.6 Z " />
<path stroke="none" fill="#000000" transform="matrix(0.05 0 0 0.05 -628 -344)" d="M 17280.9,12196.6 L 17251.1,12189.7 L 17313.4,11922.3 L 17343.2,11929.3 L 17280.9,12196.6 Z " />
<path stroke="none" fill="#000000" transform="matrix(0.05 0 0 0.05 -628 -344)" d="M 17438.1,12843.4 L 17446.4,12829.5 L 17463.2,12828 L 17665.7,13115.3 L 17658.7,13130.6 L 17640.3,13129.5 L 17438.1,12843.4 Z " />
<path stroke="none" fill="#000000" transform="matrix(0.05 0 0 0.05 -628 -344)" d="M 17522,12830.4 L 17547,12812.8 L 17708.3,13041.6 L 17683.3,13059.2 L 17522,12830.4 Z " />
<path stroke="none" fill="#000000" transform="matrix(0.05 0 0 0.05 -628 -344)" d="M 17666.1,13144.8 L 17658.7,13130.6 L 17665.7,13115.3 L 18016,13083.7 L 18036.4,13112.7 L 17666.1,13144.8 Z " />
<path stroke="none" fill="#000000" transform="matrix(0.05 0 0 0.05 -628 -344)" d="M 18036.4,13112.7 L 18016,13083.7 L 18164.4,12763.9 L 18199,12761.9 L 18036.4,13112.7 Z " />
<path stroke="none" fill="#000000" transform="matrix(0.05 0 0 0.05 -628 -344)" d="M 17988.7,13031.7 L 17961,13018.8 L 18080.5,12761.2 L 18108.3,12774.1 L 17988.7,13031.7 Z " />
<path stroke="none" fill="#000000" transform="matrix(0.05 0 0 0.05 -628 -344)" d="M 17947.2,12405.4 L 17953.9,12388.3 L 17969.7,12385.7 L 18199,12761.9 L 18164.4,12763.9 L 17947.2,12405.4 Z " />
<path stroke="none" fill="#000000" transform="matrix(0.05 0 0 0.05 -628 -344)" d="M 16791.9,13037.1 L 16802.5,13025.1 L 16820.6,13028.5 L 17012.8,13404.2 L 16992.9,13432.6 L 16791.9,13037.1 Z " />
<path stroke="none" fill="#000000" transform="matrix(0.05 0 0 0.05 -628 -344)" d="M 16992.9,13432.6 L 17012.8,13404.2 L 17364.1,13446.9 L 17376.5,13479.3 L 16992.9,13432.6 Z " />
<path stroke="none" fill="#000000" transform="matrix(0.05 0 0 0.05 -628 -344)" d="M 17051,13361.9 L 17054.7,13331.5 L 17340.9,13366.3 L 17337.2,13396.7 L 17051,13361.9 Z " />
<path stroke="none" fill="#000000" transform="matrix(0.05 0 0 0.05 -628 -344)" d="M 17640.3,13129.5 L 17658.7,13130.6 L 17666.1,13144.8 L 17376.5,13479.3 L 17364.1,13446.9 L 17640.3,13129.5 Z " />
<path stroke="none" fill="#000000" transform="matrix(0.05 0 0 0.05 -628 -344)" d="M 17418,11868.6 L 17416.5,11884.6 L 17399.9,11892.5 L 17023.5,11702.9 L 17022.7,11668.1 L 17418,11868.6 Z " />
<path stroke="none" fill="#000000" transform="matrix(0.05 0 0 0.05 -628 -344)" d="M 17022.7,11668.1 L 17023.5,11702.9 L 16715.7,11875.1 L 16686.6,11856.2 L 17022.7,11668.1 Z " />
<path stroke="none" fill="#000000" transform="matrix(0.05 0 0 0.05 -628 -344)" d="M 17017.6,11759.5 L 17032.6,11786.2 L 16781.8,11926.6 L 16766.8,11899.9 L 17017.6,11759.5 Z " />
<path stroke="none" fill="#000000" transform="matrix(0.05 0 0 0.05 -628 -344)" d="M 16678,12293 L 16662.5,12302.8 L 16648.2,12295.7 L 16686.6,11856.2 L 16715.7,11875.1 L 16678,12293 Z " />
<path stroke="none" fill="#a1a0b7" transform="matrix(0.05 0 0 0.05 -628 -344)" d="M 15283.4,11358.6 L 15298,11350.1 L 15312.5,11360.6 L 15312.5,11708.1 L 15298,11718.6 L 15283.4,11710.1 L 15283.4,11358.6 Z " />
<path stroke="none" fill="#a1a0b7" transform="matrix(0.05 0 0 0.05 -628 -344)" d="M 15299.7,11734.7 L 15298,11718.6 L 15312.5,11708.1 L 15643.2,11815.2 L 15648.8,11832.2 L 15638,11844.2 L 15299.7,11734.7 Z " />
<path stroke="none" fill="#a1a0b7" transform="matrix(0.05 0 0 0.05 -628 -344)" d="M 15665.5,11833.9 L 15648.8,11832.2 L 15643.2,11815.2 L 15847.1,11533.1 L 15864.9,11533.1 L 15873,11547.1 L 15665.5,11833.9 Z " />
<path stroke="none" fill="#a1a0b7" transform="matrix(0.05 0 0 0.05 -628 -344)" d="M 15871.8,11517.7 L 15864.9,11533.1 L 15847.1,11533.1 L 15643.3,11252.2 L 15648.8,11235.3 L 15665.5,11233.5 L 15871.8,11517.7 Z " />
<path stroke="none" fill="#a1a0b7" transform="matrix(0.05 0 0 0.05 -628 -344)" d="M 15312.5,11360.6 L 15298,11350.1 L 15299.7,11334 L 15637.9,11223.3 L 15648.8,11235.3 L 15643.3,11252.2 L 15312.5,11360.6 Z " />
<path stroke="none" fill="#a1a0b7" transform="matrix(0.05 0 0 0.05 -628 -344)" d="M 15299.7,11334 L 15298,11350.1 L 15283.4,11358.6 L 14979.4,11182.7 L 14979.4,11165.9 L 14996.5,11159.2 L 15299.7,11334 Z " />
<path stroke="none" fill="#a1a0b7" transform="matrix(0.05 0 0 0.05 -628 -344)" d="M 15229.1,11381 L 15213.8,11407.5 L 14971.7,11267.5 L 14987.1,11241 L 15229.1,11381 Z " />
<path stroke="none" fill="#a1a0b7" transform="matrix(0.05 0 0 0.05 -628 -344)" d="M 14966.7,11156.1 L 14979.4,11165.9 L 14979.4,11182.7 L 14675.3,11358.6 L 14644.6,11340.8 L 14966.7,11156.1 Z " />
<path stroke="none" fill="#a1a0b7" transform="matrix(0.05 0 0 0.05 -628 -344)" d="M 14644.6,11340.8 L 14675.3,11358.6 L 14675.2,11710.1 L 14644.6,11727.9 L 14644.6,11340.8 Z " />
<path stroke="none" fill="#a1a0b7" transform="matrix(0.05 0 0 0.05 -628 -344)" d="M 14721.9,11394.3 L 14752.5,11394.3 L 14752.5,11674.3 L 14721.9,11674.3 L 14721.9,11394.3 Z " />
<path stroke="none" fill="#a1a0b7" transform="matrix(0.05 0 0 0.05 -628 -344)" d="M 14644.6,11727.9 L 14675.2,11710.1 L 14979.4,11884.7 L 14979.4,11901.6 L 14966.7,11911.4 L 14644.6,11727.9 Z " />
<path stroke="none" fill="#a1a0b7" transform="matrix(0.05 0 0 0.05 -628 -344)" d="M 15283.4,11710.1 L 15298,11718.6 L 15299.7,11734.7 L 14996.5,11908.3 L 14979.4,11901.6 L 14979.4,11884.7 L 15283.4,11710.1 Z " />
<path stroke="none" fill="#a1a0b7" transform="matrix(0.05 0 0 0.05 -628 -344)" d="M 15299.1,11788.6 L 15314.3,11815.1 L 15077.2,11951.3 L 15062,11924.8 L 15299.1,11788.6 Z " />
<path stroke="none" fill="#a1a0b7" transform="matrix(0.05 0 0 0.05 -628 -344)" d="M 15873,11547.1 L 15864.9,11533.1 L 15871.8,11517.7 L 16221,11482 L 16230.9,11495.6 L 16221.1,11511.1 L 15873,11547.1 Z " />
<path stroke="none" fill="#a1a0b7" transform="matrix(0.05 0 0 0.05 -628 -344)" d="M 15902.5,11467.7 L 15899.4,11437.3 L 16177.6,11408.8 L 16180.7,11439.2 L 15902.5,11467.7 Z " />
<path stroke="none" fill="#a1a0b7" transform="matrix(0.05 0 0 0.05 -628 -344)" d="M 16246.9,11496.1 L 16230.9,11495.6 L 16221,11482 L 16365.1,11161.4 L 16400.4,11157.8 L 16246.9,11496.1 Z " />
<path stroke="none" fill="#a1a0b7" transform="matrix(0.05 0 0 0.05 -628 -344)" d="M 16400.4,11157.8 L 16365.1,11161.4 L 16158.9,10876.7 L 16173.3,10844.3 L 16400.4,11157.8 Z " />
<path stroke="none" fill="#a1a0b7" transform="matrix(0.05 0 0 0.05 -628 -344)" d="M 16306.4,11159.8 L 16281.6,11177.7 L 16117.3,10950.9 L 16142.1,10932.9 L 16306.4,11159.8 Z " />
<path stroke="none" fill="#a1a0b7" transform="matrix(0.05 0 0 0.05 -628 -344)" d="M 16173.3,10844.3 L 16158.9,10876.7 L 15809.1,10912.5 L 15799.2,10898.8 L 15803.7,10883.4 L 16173.3,10844.3 Z " />
<path stroke="none" fill="#a1a0b7" transform="matrix(0.05 0 0 0.05 -628 -344)" d="M 15665.5,11233.5 L 15648.8,11235.3 L 15637.9,11223.3 L 15781.4,10903.4 L 15799.2,10898.8 L 15809.1,10912.5 L 15665.5,11233.5 Z " />
<path stroke="none" fill="#a1a0b7" transform="matrix(0.05 0 0 0.05 -628 -344)" d="M 15606.7,11179.3 L 15578.7,11166.8 L 15690.8,10916.2 L 15718.7,10928.7 L 15606.7,11179.3 Z " />
<path stroke="none" fill="#a1a0b7" transform="matrix(0.05 0 0 0.05 -628 -344)" d="M 15638,11844.2 L 15648.8,11832.2 L 15665.5,11833.9 L 15809.6,12154.4 L 15799.8,12168.1 L 15782,12163.6 L 15638,11844.2 Z " />
<path stroke="none" fill="#a1a0b7" transform="matrix(0.05 0 0 0.05 -628 -344)" d="M 15722.7,11847.4 L 15750.7,11834.9 L 15865.4,12090.2 L 15837.5,12102.7 L 15722.7,11847.4 Z " />
<path stroke="none" fill="#a1a0b7" transform="matrix(0.05 0 0 0.05 -628 -344)" d="M 15804.3,12183.5 L 15799.8,12168.1 L 15809.6,12154.4 L 16159.5,12190.2 L 16174,12222.5 L 15804.3,12183.5 Z " />
<path stroke="none" fill="#a1a0b7" transform="matrix(0.05 0 0 0.05 -628 -344)" d="M 16174,12222.5 L 16159.5,12190.2 L 16366,11904.4 L 16400.5,11909.1 L 16174,12222.5 Z " />
<path stroke="none" fill="#a1a0b7" transform="matrix(0.05 0 0 0.05 -628 -344)" d="M 16142.6,12133.9 L 16117.8,12116 L 16284.2,11885.8 L 16309,11903.7 L 16142.6,12133.9 Z " />
<path stroke="none" fill="#a1a0b7" transform="matrix(0.05 0 0 0.05 -628 -344)" d="M 16221.1,11511.1 L 16230.9,11495.6 L 16246.9,11496.1 L 16400.5,11909.1 L 16366,11904.4 L 16221.1,11511.1 Z " />
<path stroke="none" fill="#a1a0b7" transform="matrix(0.05 0 0 0.05 -628 -344)" d="M 14966.7,11911.4 L 14979.4,11901.6 L 14996.5,11908.3 L 15113.7,12313.8 L 15088.7,12337.9 L 14966.7,11911.4 Z " />
<path stroke="none" fill="#a1a0b7" transform="matrix(0.05 0 0 0.05 -628 -344)" d="M 15088.7,12337.9 L 15113.7,12313.8 L 15450.4,12422.5 L 15456.4,12456.7 L 15088.7,12337.9 Z " />
<path stroke="none" fill="#a1a0b7" transform="matrix(0.05 0 0 0.05 -628 -344)" d="M 15159.2,12279.5 L 15168.6,12250.4 L 15443,12339 L 15433.6,12368.2 L 15159.2,12279.5 Z " />
<path stroke="none" fill="#a1a0b7" transform="matrix(0.05 0 0 0.05 -628 -344)" d="M 15782,12163.6 L 15799.8,12168.1 L 15804.3,12183.5 L 15456.4,12456.7 L 15450.4,12422.5 L 15782,12163.6 Z " />
<path stroke="none" fill="#a1a0b7" transform="matrix(0.05 0 0 0.05 -628 -344)" d="M 15803.7,10883.4 L 15799.2,10898.8 L 15781.4,10903.4 L 15448,10645.6 L 15453.9,10611.4 L 15803.7,10883.4 Z " />
<path stroke="none" fill="#a1a0b7" transform="matrix(0.05 0 0 0.05 -628 -344)" d="M 15453.9,10611.4 L 15448,10645.6 L 15113.1,10756.1 L 15088.1,10732 L 15453.9,10611.4 Z " />
<path stroke="none" fill="#a1a0b7" transform="matrix(0.05 0 0 0.05 -628 -344)" d="M 15431.5,10700.1 L 15441.1,10729.1 L 15168.1,10819.2 L 15158.5,10790.1 L 15431.5,10700.1 Z " />
<path stroke="none" fill="#a1a0b7" transform="matrix(0.05 0 0 0.05 -628 -344)" d="M 14996.5,11159.2 L 14979.4,11165.9 L 14966.7,11156.1 L 15088.1,10732 L 15113.1,10756.1 L 14996.5,11159.2 Z " />
<path stroke="none" fill="#dbdaeb" transform="matrix(0.05 0 0 0.05 -628 -344)" d="M 13311,12012.8 L 13326.8,12007 L 13339.3,12019.8 L 13279.9,12362.1 L 13263.8,12370 L 13250.9,12359.2 L 13311,12012.8 Z " />
<path stroke="none" fill="#dbdaeb" transform="matrix(0.05 0 0 0.05 -628 -344)" d="M 13262.8,12386.1 L 13263.8,12370 L 13279.9,12362.1 L 13587.4,12524.2 L 13590,12541.9 L 13577.3,12551.9 L 13262.8,12386.1 Z " />
<path stroke="none" fill="#dbdaeb" transform="matrix(0.05 0 0 0.05 -628 -344)" d="M 13606.2,12546.4 L 13590,12541.9 L 13587.4,12524.2 L 13836.6,12281.1 L 13854.1,12284.2 L 13859.7,12299.4 L 13606.2,12546.4 Z " />
<path stroke="none" fill="#dbdaeb" transform="matrix(0.05 0 0 0.05 -628 -344)" d="M 13863.5,12270.2 L 13854.1,12284.2 L 13836.6,12281.1 L 13683.7,11969.6 L 13692.1,11953.8 L 13708.9,11954.9 L 13863.5,12270.2 Z " />
<path stroke="none" fill="#dbdaeb" transform="matrix(0.05 0 0 0.05 -628 -344)" d="M 13339.3,12019.8 L 13326.8,12007 L 13331.2,11991.4 L 13683.5,11940.1 L 13692.1,11953.8 L 13683.7,11969.6 L 13339.3,12019.8 Z " />
<path stroke="none" fill="#dbdaeb" transform="matrix(0.05 0 0 0.05 -628 -344)" d="M 13331.2,11991.4 L 13326.8,12007 L 13311,12012.8 L 13041.5,11787.6 L 13044.4,11771 L 13062.4,11767.3 L 13331.2,11991.4 Z " />
<path stroke="none" fill="#dbdaeb" transform="matrix(0.05 0 0 0.05 -628 -344)" d="M 13253.7,12025.6 L 13234.1,12049.1 L 13019.5,11869.8 L 13039.1,11846.3 L 13253.7,12025.6 Z " />
<path stroke="none" fill="#dbdaeb" transform="matrix(0.05 0 0 0.05 -628 -344)" d="M 13033.6,11759.2 L 13044.4,11771 L 13041.5,11787.6 L 12711.8,11908.8 L 12684.6,11886.1 L 13033.6,11759.2 Z " />
<path stroke="none" fill="#dbdaeb" transform="matrix(0.05 0 0 0.05 -628 -344)" d="M 12684.6,11886.1 L 12711.8,11908.8 L 12651.7,12255.2 L 12618.4,12267.5 L 12684.6,11886.1 Z " />
<path stroke="none" fill="#dbdaeb" transform="matrix(0.05 0 0 0.05 -628 -344)" d="M 12751.6,11952 L 12781.8,11957.2 L 12733.9,12233.1 L 12703.8,12227.9 L 12751.6,11952 Z " />
<path stroke="none" fill="#dbdaeb" transform="matrix(0.05 0 0 0.05 -628 -344)" d="M 12618.4,12267.5 L 12651.7,12255.2 L 12921.5,12479.2 L 12918.6,12495.8 L 12904.5,12503.3 L 12618.4,12267.5 Z " />
<path stroke="none" fill="#dbdaeb" transform="matrix(0.05 0 0 0.05 -628 -344)" d="M 13250.9,12359.2 L 13263.8,12370 L 13262.8,12386.1 L 12934.3,12505.4 L 12918.6,12495.8 L 12921.5,12479.2 L 13250.9,12359.2 Z " />
<path stroke="none" fill="#dbdaeb" transform="matrix(0.05 0 0 0.05 -628 -344)" d="M 13252.9,12439.2 L 13263.4,12467.9 L 13006.5,12561.6 L 12996,12532.8 L 13252.9,12439.2 Z " />
<path stroke="none" fill="#dbdaeb" transform="matrix(0.05 0 0 0.05 -628 -344)" d="M 13859.7,12299.4 L 13854.1,12284.2 L 13863.5,12270.2 L 14213.7,12294.7 L 14221.1,12309.8 L 14208.8,12323.4 L 13859.7,12299.4 Z " />
<path stroke="none" fill="#dbdaeb" transform="matrix(0.05 0 0 0.05 -628 -344)" d="M 13902.4,12226.2 L 13904.5,12195.6 L 14183.5,12215.1 L 14181.3,12245.7 L 13902.4,12226.2 Z " />
<path stroke="none" fill="#dbdaeb" transform="matrix(0.05 0 0 0.05 -628 -344)" d="M 14236.8,12313 L 14221.1,12309.8 L 14213.7,12294.7 L 14410.5,12003.5 L 14445.9,12006 L 14236.8,12313 Z " />
<path stroke="none" fill="#dbdaeb" transform="matrix(0.05 0 0 0.05 -628 -344)" d="M 14445.9,12006 L 14410.5,12003.5 L 14256,11687.7 L 14275.7,11658.3 L 14445.9,12006 Z " />
<path stroke="none" fill="#dbdaeb" transform="matrix(0.05 0 0 0.05 -628 -344)" d="M 14352.9,11991.8 L 14325.4,12005.2 L 14202.3,11753.7 L 14229.8,11740.2 L 14352.9,11991.8 Z " />
<path stroke="none" fill="#dbdaeb" transform="matrix(0.05 0 0 0.05 -628 -344)" d="M 14275.7,11658.3 L 14256,11687.7 L 13905.2,11663.1 L 13897.8,11648 L 13904.9,11633.6 L 14275.7,11658.3 Z " />
<path stroke="none" fill="#dbdaeb" transform="matrix(0.05 0 0 0.05 -628 -344)" d="M 13708.9,11954.9 L 13692.1,11953.8 L 13683.5,11940.1 L 13879.5,11649.5 L 13897.8,11648 L 13905.2,11663.1 L 13708.9,11954.9 Z " />
<path stroke="none" fill="#dbdaeb" transform="matrix(0.05 0 0 0.05 -628 -344)" d="M 13660.2,11891.5 L 13634.8,11874.4 L 13788,11646.6 L 13813.4,11663.7 L 13660.2,11891.5 Z " />
<path stroke="none" fill="#dbdaeb" transform="matrix(0.05 0 0 0.05 -628 -344)" d="M 13577.3,12551.9 L 13590,12541.9 L 13606.2,12546.4 L 13693.4,12886.9 L 13681.4,12898.7 L 13664.6,12891.2 L 13577.3,12551.9 Z " />
<path stroke="none" fill="#dbdaeb" transform="matrix(0.05 0 0 0.05 -628 -344)" d="M 13660.3,12569.6 L 13690,12562 L 13759.4,12833.1 L 13729.7,12840.7 L 13660.3,12569.6 Z " />
<path stroke="none" fill="#dbdaeb" transform="matrix(0.05 0 0 0.05 -628 -344)" d="M 13683.3,12914.6 L 13681.4,12898.7 L 13693.4,12886.9 L 14032,12981.9 L 14040.8,13016.2 L 13683.3,12914.6 Z " />
<path stroke="none" fill="#dbdaeb" transform="matrix(0.05 0 0 0.05 -628 -344)" d="M 14040.8,13016.2 L 14032,12981.9 L 14284.4,12735.6 L 14317.5,12746.2 L 14040.8,13016.2 Z " />
<path stroke="none" fill="#dbdaeb" transform="matrix(0.05 0 0 0.05 -628 -344)" d="M 14025,12923.6 L 14003.7,12901.7 L 14207,12703.3 L 14228.3,12725.2 L 14025,12923.6 Z " />
<path stroke="none" fill="#dbdaeb" transform="matrix(0.05 0 0 0.05 -628 -344)" d="M 14208.8,12323.4 L 14221.1,12309.8 L 14236.8,12313 L 14317.5,12746.2 L 14284.4,12735.6 L 14208.8,12323.4 Z " />
<path stroke="none" fill="#dbdaeb" transform="matrix(0.05 0 0 0.05 -628 -344)" d="M 12904.5,12503.3 L 12918.6,12495.8 L 12934.3,12505.4 L 12980.5,12924.9 L 12951.8,12944.5 L 12904.5,12503.3 Z " />
<path stroke="none" fill="#dbdaeb" transform="matrix(0.05 0 0 0.05 -628 -344)" d="M 12951.8,12944.5 L 12980.5,12924.9 L 13293.6,13089.6 L 13293.8,13124.4 L 12951.8,12944.5 Z " />
<path stroke="none" fill="#dbdaeb" transform="matrix(0.05 0 0 0.05 -628 -344)" d="M 13031.2,12899 L 13045.4,12871.9 L 13300.6,13006.1 L 13286.3,13033.2 L 13031.2,12899 Z " />
<path stroke="none" fill="#dbdaeb" transform="matrix(0.05 0 0 0.05 -628 -344)" d="M 13664.6,12891.2 L 13681.4,12898.7 L 13683.3,12914.6 L 13293.8,13124.4 L 13293.6,13089.6 L 13664.6,12891.2 Z " />
<path stroke="none" fill="#dbdaeb" transform="matrix(0.05 0 0 0.05 -628 -344)" d="M 13904.9,11633.6 L 13897.8,11648 L 13879.5,11649.5 L 13595.1,11338.4 L 13606.7,11305.7 L 13904.9,11633.6 Z " />
<path stroke="none" fill="#dbdaeb" transform="matrix(0.05 0 0 0.05 -628 -344)" d="M 13606.7,11305.7 L 13595.1,11338.4 L 13246.2,11390 L 13225.7,11362.1 L 13606.7,11305.7 Z " />
<path stroke="none" fill="#dbdaeb" transform="matrix(0.05 0 0 0.05 -628 -344)" d="M 13569.5,11389.3 L 13573.9,11419.6 L 13289.6,11461.7 L 13285.2,11431.4 L 13569.5,11389.3 Z " />
<path stroke="none" fill="#dbdaeb" transform="matrix(0.05 0 0 0.05 -628 -344)" d="M 13062.4,11767.3 L 13044.4,11771 L 13033.6,11759.2 L 13225.7,11362.1 L 13246.2,11390 L 13062.4,11767.3 Z " />
<path stroke="none" fill="#686783" transform="matrix(0.05 0 0 0.05 -628 -344)" d="M 16945.2,9571.73 L 16962.1,9571.1 L 16969.9,9587.09 L 16807.7,9894.39 L 16790,9896.93 L 16781,9882.64 L 16945.2,9571.73 Z " />
<path stroke="none" fill="#686783" transform="matrix(0.05 0 0 0.05 -628 -344)" d="M 16784,9911.92 L 16790,9896.93 L 16807.7,9894.39 L 17050.2,10143.5 L 17047.1,10161.1 L 17032,10166.7 L 16784,9911.92 Z " />
<path stroke="none" fill="#686783" transform="matrix(0.05 0 0 0.05 -628 -344)" d="M 17061.2,10170.5 L 17047.1,10161.1 L 17050.2,10143.5 L 17362.2,9989.31 L 17377.9,9997.62 L 17378.6,10013.8 L 17061.2,10170.5 Z " />
<path stroke="none" fill="#686783" transform="matrix(0.05 0 0 0.05 -628 -344)" d="M 17391.2,9987.23 L 17377.9,9997.62 L 17362.2,9989.31 L 17313.1,9645.75 L 17325.9,9633.29 L 17341.5,9639.59 L 17391.2,9987.23 Z " />
<path stroke="none" fill="#686783" transform="matrix(0.05 0 0 0.05 -628 -344)" d="M 16969.9,9587.09 L 16962.1,9571.1 L 16971.1,9557.66 L 17321.9,9617.64 L 17325.9,9633.29 L 17313.1,9645.75 L 16969.9,9587.09 Z " />
<path stroke="none" fill="#686783" transform="matrix(0.05 0 0 0.05 -628 -344)" d="M 16971.1,9557.66 L 16962.1,9571.1 L 16945.2,9571.73 L 16758.5,9274.31 L 16766.3,9259.39 L 16784.6,9261.41 L 16971.1,9557.66 Z " />
<path stroke="none" fill="#686783" transform="matrix(0.05 0 0 0.05 -628 -344)" d="M 16886.7,9566.26 L 16860.8,9582.54 L 16712.1,9345.7 L 16738,9329.42 L 16886.7,9566.26 Z " />
<path stroke="none" fill="#686783" transform="matrix(0.05 0 0 0.05 -628 -344)" d="M 16759.7,9244.83 L 16766.3,9259.39 L 16758.5,9274.31 L 16407.4,9287.76 L 16388.6,9257.78 L 16759.7,9244.83 Z " />
<path stroke="none" fill="#686783" transform="matrix(0.05 0 0 0.05 -628 -344)" d="M 16388.6,9257.78 L 16407.4,9287.76 L 16243.3,9598.67 L 16207.8,9600.05 L 16388.6,9257.78 Z " />
<path stroke="none" fill="#686783" transform="matrix(0.05 0 0 0.05 -628 -344)" d="M 16432,9341.13 L 16459,9355.42 L 16328.3,9603.02 L 16301.2,9588.73 L 16432,9341.13 Z " />
<path stroke="none" fill="#686783" transform="matrix(0.05 0 0 0.05 -628 -344)" d="M 16207.8,9600.05 L 16243.3,9598.67 L 16430.7,9895.08 L 16422.8,9909.98 L 16407,9912.7 L 16207.8,9600.05 Z " />
<path stroke="none" fill="#686783" transform="matrix(0.05 0 0 0.05 -628 -344)" d="M 16781,9882.64 L 16790,9896.93 L 16784,9911.92 L 16434.8,9923.92 L 16422.8,9909.98 L 16430.7,9895.08 L 16781,9882.64 Z " />
<path stroke="none" fill="#686783" transform="matrix(0.05 0 0 0.05 -628 -344)" d="M 16758.3,9959.33 L 16759.4,9989.92 L 16486.1,9999.63 L 16485,9969.03 L 16758.3,9959.33 Z " />
<path stroke="none" fill="#686783" transform="matrix(0.05 0 0 0.05 -628 -344)" d="M 17378.6,10013.8 L 17377.9,9997.62 L 17391.2,9987.23 L 17716.7,10118.7 L 17719,10135.4 L 17703.2,10144.4 L 17378.6,10013.8 Z " />
<path stroke="none" fill="#686783" transform="matrix(0.05 0 0 0.05 -628 -344)" d="M 17441.7,9957.35 L 17453.2,9928.96 L 17712.5,10033.7 L 17701,10062.1 L 17441.7,9957.35 Z " />
<path stroke="none" fill="#686783" transform="matrix(0.05 0 0 0.05 -628 -344)" d="M 17733,10143.2 L 17719,10135.4 L 17716.7,10118.7 L 17993.8,9902.52 L 18026.7,9915.8 L 17733,10143.2 Z " />
<path stroke="none" fill="#686783" transform="matrix(0.05 0 0 0.05 -628 -344)" d="M 18026.7,9915.8 L 17993.8,9902.52 L 17944.4,9554.39 L 17972.3,9532.56 L 18026.7,9915.8 Z " />
<path stroke="none" fill="#686783" transform="matrix(0.05 0 0 0.05 -628 -344)" d="M 17942.6,9873.58 L 17912.3,9877.89 L 17872.9,9600.59 L 17903.2,9596.29 L 17942.6,9873.58 Z " />
<path stroke="none" fill="#686783" transform="matrix(0.05 0 0 0.05 -628 -344)" d="M 17972.3,9532.56 L 17944.4,9554.39 L 17618.4,9422.71 L 17616,9406.01 L 17627.2,9394.55 L 17972.3,9532.56 Z " />
<path stroke="none" fill="#686783" transform="matrix(0.05 0 0 0.05 -628 -344)" d="M 17341.5,9639.59 L 17325.9,9633.29 L 17321.9,9617.64 L 17598.1,9401.77 L 17616,9406.01 L 17618.4,9422.71 L 17341.5,9639.59 Z " />
<path stroke="none" fill="#686783" transform="matrix(0.05 0 0 0.05 -628 -344)" d="M 17314.8,9564.19 L 17295.9,9540.09 L 17512,9370.81 L 17530.9,9394.91 L 17314.8,9564.19 Z " />
<path stroke="none" fill="#686783" transform="matrix(0.05 0 0 0.05 -628 -344)" d="M 17032,10166.7 L 17047.1,10161.1 L 17061.2,10170.5 L 17038.9,10521.2 L 17023.8,10528.7 L 17010.2,10516.4 L 17032,10166.7 Z " />
<path stroke="none" fill="#686783" transform="matrix(0.05 0 0 0.05 -628 -344)" d="M 17105.4,10209.2 L 17136,10211.1 L 17118.3,10490.5 L 17087.7,10488.5 L 17105.4,10209.2 Z " />
<path stroke="none" fill="#686783" transform="matrix(0.05 0 0 0.05 -628 -344)" d="M 17020.7,10544.4 L 17023.8,10528.7 L 17038.9,10521.2 L 17331.6,10716.2 L 17329.3,10751.5 L 17020.7,10544.4 Z " />
<path stroke="none" fill="#686783" transform="matrix(0.05 0 0 0.05 -628 -344)" d="M 17329.3,10751.5 L 17331.6,10716.2 L 17647.7,10559.9 L 17676,10580.1 L 17329.3,10751.5 Z " />
<path stroke="none" fill="#686783" transform="matrix(0.05 0 0 0.05 -628 -344)" d="M 17343,10658.6 L 17329.4,10631.1 L 17584.1,10505.3 L 17597.6,10532.7 L 17343,10658.6 Z " />
<path stroke="none" fill="#686783" transform="matrix(0.05 0 0 0.05 -628 -344)" d="M 17703.2,10144.4 L 17719,10135.4 L 17733,10143.2 L 17676,10580.1 L 17647.7,10559.9 L 17703.2,10144.4 Z " />
<path stroke="none" fill="#686783" transform="matrix(0.05 0 0 0.05 -628 -344)" d="M 16407,9912.7 L 16422.8,9909.98 L 16434.8,9923.92 L 16349.1,10337.2 L 16315.8,10346.9 L 16407,9912.7 Z " />
<path stroke="none" fill="#686783" transform="matrix(0.05 0 0 0.05 -628 -344)" d="M 16315.8,10346.9 L 16349.1,10337.2 L 16596,10590.6 L 16585.5,10623.6 L 16315.8,10346.9 Z " />
<path stroke="none" fill="#686783" transform="matrix(0.05 0 0 0.05 -628 -344)" d="M 16405.3,10328.1 L 16427.2,10306.8 L 16628.5,10513.3 L 16606.6,10534.6 L 16405.3,10328.1 Z " />
<path stroke="none" fill="#686783" transform="matrix(0.05 0 0 0.05 -628 -344)" d="M 17010.2,10516.4 L 17023.8,10528.7 L 17020.7,10544.4 L 16585.5,10623.6 L 16596,10590.6 L 17010.2,10516.4 Z " />
<path stroke="none" fill="#686783" transform="matrix(0.05 0 0 0.05 -628 -344)" d="M 17627.2,9394.55 L 17616,9406.01 L 17598.1,9401.77 L 17423.7,9018.1 L 17444.9,8990.59 L 17627.2,9394.55 Z " />
<path stroke="none" fill="#686783" transform="matrix(0.05 0 0 0.05 -628 -344)" d="M 17444.9,8990.59 L 17423.7,9018.1 L 17075.9,8959.43 L 17065,8926.51 L 17444.9,8990.59 Z " />
<path stroke="none" fill="#686783" transform="matrix(0.05 0 0 0.05 -628 -344)" d="M 17383.6,9058.58 L 17378.5,9088.77 L 17095.1,9040.95 L 17100.2,9010.76 L 17383.6,9058.58 Z " />
<path stroke="none" fill="#686783" transform="matrix(0.05 0 0 0.05 -628 -344)" d="M 16784.6,9261.41 L 16766.3,9259.39 L 16759.7,9244.83 L 17065,8926.51 L 17075.9,8959.43 L 16784.6,9261.41 Z " />
<path stroke="none" fill="#a1a0b7" transform="matrix(0.05 0 0 0.05 -628 -344)" d="M 20154.9,9066.07 L 20169.5,9057.65 L 20184,9068.11 L 20184,9415.62 L 20169.5,9426.12 L 20154.9,9417.67 L 20154.9,9066.07 Z " />
<path stroke="none" fill="#a1a0b7" transform="matrix(0.05 0 0 0.05 -628 -344)" d="M 20171.2,9442.18 L 20169.5,9426.12 L 20184,9415.62 L 20514.7,9522.73 L 20520.3,9539.7 L 20509.5,9551.72 L 20171.2,9442.18 Z " />
<path stroke="none" fill="#a1a0b7" transform="matrix(0.05 0 0 0.05 -628 -344)" d="M 20537.1,9541.41 L 20520.3,9539.7 L 20514.7,9522.73 L 20718.6,9240.64 L 20736.5,9240.63 L 20744.5,9254.63 L 20537.1,9541.41 Z " />
<path stroke="none" fill="#a1a0b7" transform="matrix(0.05 0 0 0.05 -628 -344)" d="M 20743.3,9225.24 L 20736.5,9240.63 L 20718.6,9240.64 L 20514.8,8959.77 L 20520.3,8942.78 L 20537.1,8941.03 L 20743.3,9225.24 Z " />
<path stroke="none" fill="#a1a0b7" transform="matrix(0.05 0 0 0.05 -628 -344)" d="M 20184,9068.11 L 20169.5,9057.65 L 20171.2,9041.57 L 20509.5,8930.78 L 20520.3,8942.78 L 20514.8,8959.77 L 20184,9068.11 Z " />
<path stroke="none" fill="#a1a0b7" transform="matrix(0.05 0 0 0.05 -628 -344)" d="M 20171.2,9041.57 L 20169.5,9057.65 L 20154.9,9066.07 L 19850.9,8890.26 L 19850.9,8873.39 L 19868,8866.67 L 20171.2,9041.57 Z " />
<path stroke="none" fill="#a1a0b7" transform="matrix(0.05 0 0 0.05 -628 -344)" d="M 20100.7,9088.55 L 20085.3,9115.05 L 19843.2,8975.05 L 19858.6,8948.55 L 20100.7,9088.55 Z " />
<path stroke="none" fill="#a1a0b7" transform="matrix(0.05 0 0 0.05 -628 -344)" d="M 19838.2,8863.63 L 19850.9,8873.39 L 19850.9,8890.26 L 19546.8,9066.07 L 19516.1,9048.37 L 19838.2,8863.63 Z " />
<path stroke="none" fill="#a1a0b7" transform="matrix(0.05 0 0 0.05 -628 -344)" d="M 19516.1,9048.37 L 19546.8,9066.07 L 19546.8,9417.66 L 19516.1,9435.43 L 19516.1,9048.37 Z " />
<path stroke="none" fill="#a1a0b7" transform="matrix(0.05 0 0 0.05 -628 -344)" d="M 19593.4,9101.81 L 19624,9101.81 L 19624,9381.8 L 19593.4,9381.8 L 19593.4,9101.81 Z " />
<path stroke="none" fill="#a1a0b7" transform="matrix(0.05 0 0 0.05 -628 -344)" d="M 19516.1,9435.43 L 19546.8,9417.66 L 19850.9,9592.26 L 19850.9,9609.11 L 19838.2,9618.89 L 19516.1,9435.43 Z " />
<path stroke="none" fill="#a1a0b7" transform="matrix(0.05 0 0 0.05 -628 -344)" d="M 20154.9,9417.67 L 20169.5,9426.12 L 20171.2,9442.18 L 19868,9615.86 L 19850.9,9609.11 L 19850.9,9592.26 L 20154.9,9417.67 Z " />
<path stroke="none" fill="#a1a0b7" transform="matrix(0.05 0 0 0.05 -628 -344)" d="M 20170.6,9496.11 L 20185.9,9522.66 L 19948.7,9658.85 L 19933.5,9632.3 L 20170.6,9496.11 Z " />
<path stroke="none" fill="#a1a0b7" transform="matrix(0.05 0 0 0.05 -628 -344)" d="M 20744.5,9254.63 L 20736.5,9240.63 L 20743.3,9225.24 L 21092.5,9189.48 L 21102.4,9203.15 L 21092.6,9218.59 L 20744.5,9254.63 Z " />
<path stroke="none" fill="#a1a0b7" transform="matrix(0.05 0 0 0.05 -628 -344)" d="M 20774.1,9175.23 L 20770.9,9144.77 L 21049.1,9116.28 L 21052.3,9146.74 L 20774.1,9175.23 Z " />
<path stroke="none" fill="#a1a0b7" transform="matrix(0.05 0 0 0.05 -628 -344)" d="M 21118.4,9203.57 L 21102.4,9203.15 L 21092.5,9189.48 L 21236.7,8868.96 L 21271.9,8865.34 L 21118.4,9203.57 Z " />
<path stroke="none" fill="#a1a0b7" transform="matrix(0.05 0 0 0.05 -628 -344)" d="M 21271.9,8865.34 L 21236.7,8868.96 L 21030.4,8584.19 L 21044.9,8551.87 L 21271.9,8865.34 Z " />
<path stroke="none" fill="#a1a0b7" transform="matrix(0.05 0 0 0.05 -628 -344)" d="M 21177.9,8867.27 L 21153.1,8885.23 L 20988.8,8658.41 L 21013.6,8640.45 L 21177.9,8867.27 Z " />
<path stroke="none" fill="#a1a0b7" transform="matrix(0.05 0 0 0.05 -628 -344)" d="M 21044.9,8551.87 L 21030.4,8584.19 L 20680.6,8619.98 L 20670.7,8606.31 L 20675.2,8590.96 L 21044.9,8551.87 Z " />
<path stroke="none" fill="#a1a0b7" transform="matrix(0.05 0 0 0.05 -628 -344)" d="M 20537.1,8941.03 L 20520.3,8942.78 L 20509.5,8930.78 L 20652.9,8610.91 L 20670.7,8606.31 L 20680.6,8619.98 L 20537.1,8941.03 Z " />
<path stroke="none" fill="#a1a0b7" transform="matrix(0.05 0 0 0.05 -628 -344)" d="M 20478.2,8886.84 L 20450.3,8874.35 L 20562.3,8623.75 L 20590.3,8636.24 L 20478.2,8886.84 Z " />
<path stroke="none" fill="#a1a0b7" transform="matrix(0.05 0 0 0.05 -628 -344)" d="M 20509.5,9551.72 L 20520.3,9539.7 L 20537.1,9541.41 L 20681.2,9861.96 L 20671.3,9875.64 L 20653.5,9871.1 L 20509.5,9551.72 Z " />
<path stroke="none" fill="#a1a0b7" transform="matrix(0.05 0 0 0.05 -628 -344)" d="M 20594.3,9554.95 L 20622.2,9542.4 L 20737,9797.71 L 20709,9810.26 L 20594.3,9554.95 Z " />
<path stroke="none" fill="#a1a0b7" transform="matrix(0.05 0 0 0.05 -628 -344)" d="M 20675.9,9890.98 L 20671.3,9875.64 L 20681.2,9861.96 L 21031,9897.68 L 21045.5,9930 L 20675.9,9890.98 Z " />
<path stroke="none" fill="#a1a0b7" transform="matrix(0.05 0 0 0.05 -628 -344)" d="M 21045.5,9930 L 21031,9897.68 L 21237.6,9611.89 L 21272,9616.59 L 21045.5,9930 Z " />
<path stroke="none" fill="#a1a0b7" transform="matrix(0.05 0 0 0.05 -628 -344)" d="M 21014.2,9841.41 L 20989.3,9823.47 L 21155.8,9593.29 L 21180.6,9611.23 L 21014.2,9841.41 Z " />
<path stroke="none" fill="#a1a0b7" transform="matrix(0.05 0 0 0.05 -628 -344)" d="M 21092.6,9218.59 L 21102.4,9203.15 L 21118.4,9203.57 L 21272,9616.59 L 21237.6,9611.89 L 21092.6,9218.59 Z " />
<path stroke="none" fill="#a1a0b7" transform="matrix(0.05 0 0 0.05 -628 -344)" d="M 19838.2,9618.89 L 19850.9,9609.11 L 19868,9615.86 L 19985.2,10021.3 L 19960.3,10045.5 L 19838.2,9618.89 Z " />
<path stroke="none" fill="#a1a0b7" transform="matrix(0.05 0 0 0.05 -628 -344)" d="M 19960.3,10045.5 L 19985.2,10021.3 L 20321.9,10130.1 L 20328,10164.2 L 19960.3,10045.5 Z " />
<path stroke="none" fill="#a1a0b7" transform="matrix(0.05 0 0 0.05 -628 -344)" d="M 20030.7,9987.05 L 20040.1,9957.92 L 20314.5,10046.5 L 20305.1,10075.7 L 20030.7,9987.05 Z " />
<path stroke="none" fill="#a1a0b7" transform="matrix(0.05 0 0 0.05 -628 -344)" d="M 20653.5,9871.1 L 20671.3,9875.64 L 20675.9,9890.98 L 20328,10164.2 L 20321.9,10130.1 L 20653.5,9871.1 Z " />
<path stroke="none" fill="#a1a0b7" transform="matrix(0.05 0 0 0.05 -628 -344)" d="M 20675.2,8590.96 L 20670.7,8606.31 L 20652.9,8610.91 L 20319.5,8353.1 L 20325.4,8318.87 L 20675.2,8590.96 Z " />
<path stroke="none" fill="#a1a0b7" transform="matrix(0.05 0 0 0.05 -628 -344)" d="M 20325.4,8318.87 L 20319.5,8353.1 L 19984.6,8463.59 L 19959.6,8439.56 L 20325.4,8318.87 Z " />
<path stroke="none" fill="#a1a0b7" transform="matrix(0.05 0 0 0.05 -628 -344)" d="M 20303,8407.6 L 20312.6,8436.67 L 20039.6,8526.71 L 20030.1,8497.64 L 20303,8407.6 Z " />
<path stroke="none" fill="#a1a0b7" transform="matrix(0.05 0 0 0.05 -628 -344)" d="M 19868,8866.67 L 19850.9,8873.39 L 19838.2,8863.63 L 19959.6,8439.56 L 19984.6,8463.59 L 19868,8866.67 Z " />
<path stroke="none" fill="#000000" transform="matrix(0.05 0 0 0.05 -628 -344)" d="M 19712.3,12777.7 L 19727.2,12769.9 L 19741.2,12781 L 19726.5,13128.2 L 19711.7,13138.1 L 19697.4,13129 L 19712.3,12777.7 Z " />
<path stroke="none" fill="#000000" transform="matrix(0.05 0 0 0.05 -628 -344)" d="M 19712.6,13154.2 L 19711.7,13138.1 L 19726.5,13128.2 L 20052.4,13249.2 L 20057.3,13266.4 L 20046,13277.9 L 19712.6,13154.2 Z " />
<path stroke="none" fill="#000000" transform="matrix(0.05 0 0 0.05 -628 -344)" d="M 20074,13268.8 L 20057.3,13266.4 L 20052.4,13249.2 L 20268.1,12976 L 20285.9,12976.7 L 20293.4,12991.1 L 20074,13268.8 Z " />
<path stroke="none" fill="#000000" transform="matrix(0.05 0 0 0.05 -628 -344)" d="M 20293.4,12961.6 L 20285.9,12976.7 L 20268.1,12976 L 20076.3,12686.7 L 20082.5,12670 L 20099.4,12669 L 20293.4,12961.6 Z " />
<path stroke="none" fill="#000000" transform="matrix(0.05 0 0 0.05 -628 -344)" d="M 19741.2,12781 L 19727.2,12769.9 L 19729.6,12753.9 L 20072.2,12657.6 L 20082.5,12670 L 20076.3,12686.7 L 19741.2,12781 Z " />
<path stroke="none" fill="#000000" transform="matrix(0.05 0 0 0.05 -628 -344)" d="M 19729.6,12753.9 L 19727.2,12769.9 L 19712.3,12777.7 L 19416,12589.2 L 19416.7,12572.4 L 19434,12566.4 L 19729.6,12753.9 Z " />
<path stroke="none" fill="#000000" transform="matrix(0.05 0 0 0.05 -628 -344)" d="M 19657.1,12797.9 L 19640.7,12823.7 L 19404.7,12673.6 L 19421.2,12647.8 L 19657.1,12797.9 Z " />
<path stroke="none" fill="#000000" transform="matrix(0.05 0 0 0.05 -628 -344)" d="M 19404.4,12562.1 L 19416.7,12572.4 L 19416,12589.2 L 19104.7,12752 L 19074.8,12733 L 19404.4,12562.1 Z " />
<path stroke="none" fill="#000000" transform="matrix(0.05 0 0 0.05 -628 -344)" d="M 19074.8,12733 L 19104.7,12752 L 19089.8,13103.3 L 19058.4,13119.7 L 19074.8,12733 Z " />
<path stroke="none" fill="#000000" transform="matrix(0.05 0 0 0.05 -628 -344)" d="M 19149.7,12789.7 L 19180.3,12791 L 19168.5,13070.7 L 19137.9,13069.4 L 19149.7,12789.7 Z " />
<path stroke="none" fill="#000000" transform="matrix(0.05 0 0 0.05 -628 -344)" d="M 19058.4,13119.7 L 19089.8,13103.3 L 19386.3,13290.6 L 19385.6,13307.4 L 19372.5,13316.7 L 19058.4,13119.7 Z " />
<path stroke="none" fill="#000000" transform="matrix(0.05 0 0 0.05 -628 -344)" d="M 19697.4,13129 L 19711.7,13138.1 L 19712.6,13154.2 L 19402.3,13314.9 L 19385.6,13307.4 L 19386.3,13290.6 L 19697.4,13129 Z " />
<path stroke="none" fill="#000000" transform="matrix(0.05 0 0 0.05 -628 -344)" d="M 19709.8,13208 L 19723.9,13235.2 L 19481.2,13361.3 L 19467.1,13334.1 L 19709.8,13208 Z " />
<path stroke="none" fill="#000000" transform="matrix(0.05 0 0 0.05 -628 -344)" d="M 20293.4,12991.1 L 20285.9,12976.7 L 20293.4,12961.6 L 20643.8,12940.7 L 20653.1,12954.8 L 20642.7,12969.8 L 20293.4,12991.1 Z " />
<path stroke="none" fill="#000000" transform="matrix(0.05 0 0 0.05 -628 -344)" d="M 20326.2,12913 L 20324.4,12882.4 L 20603.6,12865.7 L 20605.4,12896.3 L 20326.2,12913 Z " />
<path stroke="none" fill="#000000" transform="matrix(0.05 0 0 0.05 -628 -344)" d="M 20669.1,12955.9 L 20653.1,12954.8 L 20643.8,12940.7 L 20801.4,12626.5 L 20836.8,12624.4 L 20669.1,12955.9 Z " />
<path stroke="none" fill="#000000" transform="matrix(0.05 0 0 0.05 -628 -344)" d="M 20836.8,12624.4 L 20801.4,12626.5 L 20607.3,12333.3 L 20623.2,12301.6 L 20836.8,12624.4 Z " />
<path stroke="none" fill="#000000" transform="matrix(0.05 0 0 0.05 -628 -344)" d="M 20742.7,12622.4 L 20717.2,12639.3 L 20562.6,12405.7 L 20588.2,12388.8 L 20742.7,12622.4 Z " />
<path stroke="none" fill="#000000" transform="matrix(0.05 0 0 0.05 -628 -344)" d="M 20623.2,12301.6 L 20607.3,12333.3 L 20256.4,12354.3 L 20247.1,12340.2 L 20252.2,12325.1 L 20623.2,12301.6 Z " />
<path stroke="none" fill="#000000" transform="matrix(0.05 0 0 0.05 -628 -344)" d="M 20099.4,12669 L 20082.5,12670 L 20072.2,12657.6 L 20229.1,12344 L 20247.1,12340.2 L 20256.4,12354.3 L 20099.4,12669 Z " />
<path stroke="none" fill="#000000" transform="matrix(0.05 0 0 0.05 -628 -344)" d="M 20042.9,12612.3 L 20015.5,12598.7 L 20138,12353 L 20165.4,12366.7 L 20042.9,12612.3 Z " />
<path stroke="none" fill="#000000" transform="matrix(0.05 0 0 0.05 -628 -344)" d="M 20046,13277.9 L 20057.3,13266.4 L 20074,13268.8 L 20204.4,13595.2 L 20194,13608.4 L 20176.4,13603.1 L 20046,13277.9 Z " />
<path stroke="none" fill="#000000" transform="matrix(0.05 0 0 0.05 -628 -344)" d="M 20130.5,13284.8 L 20159,13273.4 L 20262.9,13533.3 L 20234.4,13544.7 L 20130.5,13284.8 Z " />
<path stroke="none" fill="#000000" transform="matrix(0.05 0 0 0.05 -628 -344)" d="M 20197.9,13623.9 L 20194,13608.4 L 20204.4,13595.2 L 20552.4,13645.6 L 20565.5,13678.6 L 20197.9,13623.9 Z " />
<path stroke="none" fill="#000000" transform="matrix(0.05 0 0 0.05 -628 -344)" d="M 20565.5,13678.6 L 20552.4,13645.6 L 20770.9,13368.9 L 20805.1,13375 L 20565.5,13678.6 Z " />
<path stroke="none" fill="#000000" transform="matrix(0.05 0 0 0.05 -628 -344)" d="M 20538,13588.7 L 20513.9,13569.7 L 20689.9,13346.8 L 20713.9,13365.8 L 20538,13588.7 Z " />
<path stroke="none" fill="#000000" transform="matrix(0.05 0 0 0.05 -628 -344)" d="M 20642.7,12969.8 L 20653.1,12954.8 L 20669.1,12955.9 L 20805.1,13375 L 20770.9,13368.9 L 20642.7,12969.8 Z " />
<path stroke="none" fill="#000000" transform="matrix(0.05 0 0 0.05 -628 -344)" d="M 19372.5,13316.7 L 19385.6,13307.4 L 19402.3,13314.9 L 19502.3,13724.9 L 19476.4,13748 L 19372.5,13316.7 Z " />
<path stroke="none" fill="#000000" transform="matrix(0.05 0 0 0.05 -628 -344)" d="M 19476.4,13748 L 19502.3,13724.9 L 19834.1,13847.8 L 19838.7,13882.2 L 19476.4,13748 Z " />
<path stroke="none" fill="#000000" transform="matrix(0.05 0 0 0.05 -628 -344)" d="M 19549.2,13692.6 L 19559.9,13663.9 L 19830.2,13764.1 L 19819.6,13792.8 L 19549.2,13692.6 Z " />
<path stroke="none" fill="#000000" transform="matrix(0.05 0 0 0.05 -628 -344)" d="M 20176.4,13603.1 L 20194,13608.4 L 20197.9,13623.9 L 19838.7,13882.2 L 19834.1,13847.8 L 20176.4,13603.1 Z " />
<path stroke="none" fill="#000000" transform="matrix(0.05 0 0 0.05 -628 -344)" d="M 20252.2,12325.1 L 20247.1,12340.2 L 20229.1,12344 L 19906.9,12072.4 L 19914.2,12038.4 L 20252.2,12325.1 Z " />
<path stroke="none" fill="#000000" transform="matrix(0.05 0 0 0.05 -628 -344)" d="M 19914.2,12038.4 L 19906.9,12072.4 L 19567.6,12168.6 L 19543.6,12143.5 L 19914.2,12038.4 Z " />
<path stroke="none" fill="#000000" transform="matrix(0.05 0 0 0.05 -628 -344)" d="M 19888.1,12126.1 L 19896.4,12155.6 L 19619.9,12234 L 19611.6,12204.5 L 19888.1,12126.1 Z " />
<path stroke="none" fill="#000000" transform="matrix(0.05 0 0 0.05 -628 -344)" d="M 19434,12566.4 L 19416.7,12572.4 L 19404.4,12562.1 L 19543.6,12143.5 L 19567.6,12168.6 L 19434,12566.4 Z " />
<path stroke="none" fill="#dbdaeb" transform="matrix(0.05 0 0 0.05 -628 -344)" d="M 18411.7,7681.03 L 18426.3,7672.61 L 18440.7,7683.07 L 18440.7,8030.58 L 18426.3,8041.08 L 18411.7,8032.63 L 18411.7,7681.03 Z " />
<path stroke="none" fill="#dbdaeb" transform="matrix(0.05 0 0 0.05 -628 -344)" d="M 18428,8057.14 L 18426.3,8041.08 L 18440.7,8030.58 L 18771.5,8137.69 L 18777,8154.66 L 18766.3,8166.68 L 18428,8057.14 Z " />
<path stroke="none" fill="#dbdaeb" transform="matrix(0.05 0 0 0.05 -628 -344)" d="M 18793.8,8156.37 L 18777,8154.66 L 18771.5,8137.69 L 18975.4,7855.6 L 18993.2,7855.59 L 19001.3,7869.59 L 18793.8,8156.37 Z " />
<path stroke="none" fill="#dbdaeb" transform="matrix(0.05 0 0 0.05 -628 -344)" d="M 19000.1,7840.2 L 18993.2,7855.59 L 18975.4,7855.6 L 18771.5,7574.73 L 18777,7557.74 L 18793.8,7555.99 L 19000.1,7840.2 Z " />
<path stroke="none" fill="#dbdaeb" transform="matrix(0.05 0 0 0.05 -628 -344)" d="M 18440.7,7683.07 L 18426.3,7672.61 L 18428,7656.53 L 18766.2,7545.74 L 18777,7557.74 L 18771.5,7574.73 L 18440.7,7683.07 Z " />
<path stroke="none" fill="#dbdaeb" transform="matrix(0.05 0 0 0.05 -628 -344)" d="M 18428,7656.53 L 18426.3,7672.61 L 18411.7,7681.03 L 18107.7,7505.22 L 18107.7,7488.35 L 18124.7,7481.63 L 18428,7656.53 Z " />
<path stroke="none" fill="#dbdaeb" transform="matrix(0.05 0 0 0.05 -628 -344)" d="M 18357.4,7703.51 L 18342.1,7730.01 L 18100,7590.01 L 18115.3,7563.51 L 18357.4,7703.51 Z " />
<path stroke="none" fill="#dbdaeb" transform="matrix(0.05 0 0 0.05 -628 -344)" d="M 18095,7478.59 L 18107.7,7488.35 L 18107.7,7505.22 L 17803.5,7681.03 L 17772.8,7663.33 L 18095,7478.59 Z " />
<path stroke="none" fill="#dbdaeb" transform="matrix(0.05 0 0 0.05 -628 -344)" d="M 17772.8,7663.33 L 17803.5,7681.03 L 17803.5,8032.62 L 17772.8,8050.39 L 17772.8,7663.33 Z " />
<path stroke="none" fill="#dbdaeb" transform="matrix(0.05 0 0 0.05 -628 -344)" d="M 17850.2,7716.77 L 17880.8,7716.77 L 17880.8,7996.76 L 17850.2,7996.76 L 17850.2,7716.77 Z " />
<path stroke="none" fill="#dbdaeb" transform="matrix(0.05 0 0 0.05 -628 -344)" d="M 17772.8,8050.39 L 17803.5,8032.62 L 18107.7,8207.22 L 18107.7,8224.07 L 18095,8233.85 L 17772.8,8050.39 Z " />
<path stroke="none" fill="#dbdaeb" transform="matrix(0.05 0 0 0.05 -628 -344)" d="M 18411.7,8032.63 L 18426.3,8041.08 L 18428,8057.14 L 18124.7,8230.82 L 18107.7,8224.07 L 18107.7,8207.22 L 18411.7,8032.63 Z " />
<path stroke="none" fill="#dbdaeb" transform="matrix(0.05 0 0 0.05 -628 -344)" d="M 18427.4,8111.07 L 18442.6,8137.62 L 18205.5,8273.81 L 18190.2,8247.26 L 18427.4,8111.07 Z " />
<path stroke="none" fill="#dbdaeb" transform="matrix(0.05 0 0 0.05 -628 -344)" d="M 19001.3,7869.59 L 18993.2,7855.59 L 19000.1,7840.2 L 19349.3,7804.44 L 19359.2,7818.11 L 19349.4,7833.55 L 19001.3,7869.59 Z " />
<path stroke="none" fill="#dbdaeb" transform="matrix(0.05 0 0 0.05 -628 -344)" d="M 19030.8,7790.19 L 19027.7,7759.73 L 19305.9,7731.24 L 19309,7761.7 L 19030.8,7790.19 Z " />
<path stroke="none" fill="#dbdaeb" transform="matrix(0.05 0 0 0.05 -628 -344)" d="M 19375.2,7818.53 L 19359.2,7818.11 L 19349.3,7804.44 L 19493.4,7483.92 L 19528.7,7480.3 L 19375.2,7818.53 Z " />
<path stroke="none" fill="#dbdaeb" transform="matrix(0.05 0 0 0.05 -628 -344)" d="M 19528.7,7480.3 L 19493.4,7483.92 L 19287.1,7199.15 L 19301.6,7166.83 L 19528.7,7480.3 Z " />
<path stroke="none" fill="#dbdaeb" transform="matrix(0.05 0 0 0.05 -628 -344)" d="M 19434.6,7482.23 L 19409.8,7500.19 L 19245.5,7273.37 L 19270.3,7255.41 L 19434.6,7482.23 Z " />
<path stroke="none" fill="#dbdaeb" transform="matrix(0.05 0 0 0.05 -628 -344)" d="M 19301.6,7166.83 L 19287.1,7199.15 L 18937.4,7234.94 L 18927.5,7221.27 L 18932,7205.92 L 19301.6,7166.83 Z " />
<path stroke="none" fill="#dbdaeb" transform="matrix(0.05 0 0 0.05 -628 -344)" d="M 18793.8,7555.99 L 18777,7557.74 L 18766.2,7545.74 L 18909.7,7225.87 L 18927.5,7221.27 L 18937.4,7234.94 L 18793.8,7555.99 Z " />
<path stroke="none" fill="#dbdaeb" transform="matrix(0.05 0 0 0.05 -628 -344)" d="M 18735,7501.8 L 18707,7489.31 L 18819.1,7238.71 L 18847,7251.2 L 18735,7501.8 Z " />
<path stroke="none" fill="#dbdaeb" transform="matrix(0.05 0 0 0.05 -628 -344)" d="M 18766.3,8166.68 L 18777,8154.66 L 18793.8,8156.37 L 18937.9,8476.92 L 18928.1,8490.6 L 18910.3,8486.06 L 18766.3,8166.68 Z " />
<path stroke="none" fill="#dbdaeb" transform="matrix(0.05 0 0 0.05 -628 -344)" d="M 18851,8169.91 L 18878.9,8157.36 L 18993.7,8412.67 L 18965.8,8425.22 L 18851,8169.91 Z " />
<path stroke="none" fill="#dbdaeb" transform="matrix(0.05 0 0 0.05 -628 -344)" d="M 18932.6,8505.94 L 18928.1,8490.6 L 18937.9,8476.92 L 19287.8,8512.64 L 19302.3,8544.96 L 18932.6,8505.94 Z " />
<path stroke="none" fill="#dbdaeb" transform="matrix(0.05 0 0 0.05 -628 -344)" d="M 19302.3,8544.96 L 19287.8,8512.64 L 19494.3,8226.85 L 19528.7,8231.54 L 19302.3,8544.96 Z " />
<path stroke="none" fill="#dbdaeb" transform="matrix(0.05 0 0 0.05 -628 -344)" d="M 19270.9,8456.37 L 19246.1,8438.43 L 19412.5,8208.25 L 19437.3,8226.18 L 19270.9,8456.37 Z " />
<path stroke="none" fill="#dbdaeb" transform="matrix(0.05 0 0 0.05 -628 -344)" d="M 19349.4,7833.55 L 19359.2,7818.11 L 19375.2,7818.53 L 19528.7,8231.54 L 19494.3,8226.85 L 19349.4,7833.55 Z " />
<path stroke="none" fill="#dbdaeb" transform="matrix(0.05 0 0 0.05 -628 -344)" d="M 18095,8233.85 L 18107.7,8224.07 L 18124.7,8230.82 L 18242,8636.26 L 18217,8660.41 L 18095,8233.85 Z " />
<path stroke="none" fill="#dbdaeb" transform="matrix(0.05 0 0 0.05 -628 -344)" d="M 18217,8660.41 L 18242,8636.26 L 18578.6,8745.01 L 18584.7,8779.19 L 18217,8660.41 Z " />
<path stroke="none" fill="#dbdaeb" transform="matrix(0.05 0 0 0.05 -628 -344)" d="M 18287.5,8602.01 L 18296.9,8572.88 L 18571.2,8661.51 L 18561.8,8690.64 L 18287.5,8602.01 Z " />
<path stroke="none" fill="#dbdaeb" transform="matrix(0.05 0 0 0.05 -628 -344)" d="M 18910.3,8486.06 L 18928.1,8490.6 L 18932.6,8505.94 L 18584.7,8779.19 L 18578.6,8745.01 L 18910.3,8486.06 Z " />
<path stroke="none" fill="#dbdaeb" transform="matrix(0.05 0 0 0.05 -628 -344)" d="M 18932,7205.92 L 18927.5,7221.27 L 18909.7,7225.87 L 18576.3,6968.06 L 18582.2,6933.83 L 18932,7205.92 Z " />
<path stroke="none" fill="#dbdaeb" transform="matrix(0.05 0 0 0.05 -628 -344)" d="M 18582.2,6933.83 L 18576.3,6968.06 L 18241.4,7078.55 L 18216.4,7054.52 L 18582.2,6933.83 Z " />
<path stroke="none" fill="#dbdaeb" transform="matrix(0.05 0 0 0.05 -628 -344)" d="M 18559.8,7022.56 L 18569.3,7051.63 L 18296.4,7141.67 L 18286.8,7112.6 L 18559.8,7022.56 Z " />
<path stroke="none" fill="#dbdaeb" transform="matrix(0.05 0 0 0.05 -628 -344)" d="M 18124.7,7481.63 L 18107.7,7488.35 L 18095,7478.59 L 18216.4,7054.52 L 18241.4,7078.55 L 18124.7,7481.63 Z " />
</svg>
